<?xml version="1.0" encoding="utf-8"?>
<!-- Generator: Adobe Illustrator 27.3.1, SVG Export Plug-In . SVG Version: 6.00 Build 0)  -->
<svg version="1.1" id="Camada_1" xmlns="http://www.w3.org/2000/svg" xmlns:xlink="http://www.w3.org/1999/xlink" x="0px" y="0px"
	 viewBox="0 0 235 61" style="enable-background:new 0 0 235 61;" xml:space="preserve">
<style type="text/css">
	.st0{fill:#FF004F;}
	.st1{fill:#FFFFFF;}
</style>
<g>
	<path class="st0" d="M31.4,49.2H21V12.3h18.5c4.1,0,7.5,0.4,10,1.3c2.5,0.9,4.3,2.3,5.4,4.4c1.1,2,1.6,4.8,1.6,8.2
		c0,3.3-0.5,5.9-1.6,7.9c-1.1,2-2.9,3.5-5.4,4.5c-2.5,1-5.8,1.5-10,1.5h-8V49.2z M37.7,19.9h-6.3v12.6h6.3c3.1,0,5.2-0.5,6.2-1.4
		s1.6-2.6,1.6-4.9c0-2.2-0.5-3.8-1.6-4.8C42.9,20.4,40.8,19.9,37.7,19.9z"/>
	<path class="st1" d="M90.9,48.2c-1.2,0.4-2.9,0.7-5.1,1s-4.7,0.4-7.7,0.4c-3.8,0-7-0.4-9.6-1.3c-2.6-0.9-4.6-2.4-6-4.5
		c-1.4-2.1-2-5.1-2-8.8c0-5.1,1.3-8.8,4-11.1c2.6-2.3,6.7-3.4,12.3-3.4c4,0,7.1,0.5,9.4,1.5c2.3,1,3.9,2.4,4.9,4.3
		c1,1.8,1.5,4,1.5,6.6c0,0.7,0,1.5-0.1,2.4c-0.1,0.9-0.2,1.7-0.4,2.5L91.8,38H70.2c0.3,1.7,1.2,2.8,2.7,3.4c1.5,0.5,4,0.8,7.4,0.8
		c2.3,0,4.2,0,5.7-0.1c1.5-0.1,3-0.2,4.6-0.4l0.3,0.2V48.2z M83.4,31.9c0-0.9-0.2-1.7-0.5-2.4c-0.3-0.7-1-1.2-1.9-1.6
		c-1-0.4-2.4-0.6-4.3-0.6c-2.8,0-4.6,0.4-5.4,1.3c-0.9,0.8-1.3,1.9-1.3,3.3H83.4z"/>
	<path class="st1" d="M118.8,49.2l-0.4-4.1h-0.3c-0.7,1.6-1.8,2.7-3.2,3.5c-1.4,0.8-3.4,1.2-6,1.2c-4.2,0-7.3-1.1-9.3-3.3
		c-2-2.2-3-5.5-3.1-9.9c0-4,0.4-7.1,1.4-9.4c1-2.3,2.5-4,4.5-5c2.1-1,4.7-1.5,7.9-1.5c1.7,0,3.2,0.1,4.5,0.4c1.4,0.3,2.4,0.6,3.3,1
		l0.1-0.1V10h10.5v39.2H118.8z M112.4,41.8c1.7,0,3.2-0.5,4.3-1.5c1.1-1,1.6-2.6,1.6-4.8v-6.1c-1.6-0.6-3.5-0.9-5.7-0.9
		c-2.1,0-3.5,0.4-4.4,1.3c-0.9,0.9-1.3,2.6-1.3,5.3c0,2.3,0.4,3.9,1.1,5S110.1,41.8,112.4,41.8z"/>
	<path class="st1" d="M147.9,49.2h-10.5V20.8h8.5l0.9,5.8h0.2c0.4-2.2,1.3-3.7,2.8-4.7c1.5-1,3.7-1.4,6.6-1.4c1.2,0,2.2,0,3.2,0.1
		c1,0.1,1.8,0.2,2.4,0.3V30l-0.1,0.1c-0.7-0.2-1.5-0.3-2.4-0.4c-0.9-0.1-1.9-0.2-3-0.2c-1.6,0-3.1,0.2-4.4,0.7
		c-1.3,0.5-2.3,1.4-3,2.7s-1.1,3.3-1.1,6L147.9,49.2z"/>
	<path class="st1" d="M165.1,35.2c0-5.2,1.2-8.9,3.7-11.2c2.5-2.3,6.7-3.4,12.6-3.4c4,0,7.2,0.5,9.6,1.5c2.4,1,4.1,2.6,5.2,4.7
		c1.1,2.2,1.6,5,1.6,8.4c0,3.4-0.5,6.2-1.6,8.3c-1.1,2.1-2.8,3.7-5.2,4.7c-2.4,1-5.6,1.5-9.6,1.5c-5.9,0-10.2-1.1-12.6-3.4
		C166.3,44,165.1,40.3,165.1,35.2z M181.5,41.7c2.5,0,4.2-0.5,5.1-1.5c0.9-1,1.3-2.7,1.3-5.2c0-2.4-0.4-4.1-1.3-5.1
		c-0.9-1-2.6-1.5-5.1-1.5c-2.4,0-4.1,0.5-5.1,1.5c-0.9,1-1.4,2.7-1.4,5.1c0,2.5,0.5,4.2,1.4,5.2C177.3,41.2,179,41.7,181.5,41.7z"/>
	<path class="st1" d="M215.2,40.9c0.1,0.9,0.2,1.6,0.2,2.2c0,0.6,0.1,1.2,0.1,1.9c0,0.6,0,1.3-0.1,1.9s-0.1,1.4-0.2,2.2
		c-1.1,0.2-2.2,0.3-3.3,0.4c-1.1,0.1-2.2,0.2-3.3,0.2c-1,0-2.1-0.1-3.1-0.2c-1-0.1-2.1-0.3-3.2-0.4c-0.1-0.8-0.2-1.5-0.3-2.1
		c0-0.6-0.1-1.3-0.1-1.9c0-0.6,0-1.2,0.1-1.9c0-0.7,0.1-1.4,0.3-2.3c2.2-0.3,4.3-0.5,6.5-0.5C210.9,40.4,213.1,40.5,215.2,40.9z"/>
</g>
</svg>
